<?xml version="1.0" encoding="UTF-8"?>
<!-- Generator: Adobe Illustrator 17.0.0, SVG Export Plug-In . SVG Version: 6.00 Build 0)  -->
<!DOCTYPE svg PUBLIC "-//W3C//DTD SVG 1.1//EN" "http://www.w3.org/Graphics/SVG/1.1/DTD/svg11.dtd">
<svg version="1.1" id="Layer_1" xmlns="http://www.w3.org/2000/svg" xmlns:xlink="http://www.w3.org/1999/xlink" x="0px" y="0px" width="124px" height="124px" viewBox="0 0 124 124" enable-background="new 0 0 124 124" xml:space="preserve">
<path fill="#34ACB0" d="M62,0C27.758,0,0,27.758,0,62c0,34.242,27.758,62,62,62c34.242,0,62-27.758,62-62C124,27.758,96.242,0,62,0z   M94.535,52.624C86,59.114,75.429,78.283,75.355,89.005c-0.015,2.163,1.483,6.106,1.483,8.414c0,8.195-6.643,14.838-14.838,14.838  c-8.195,0-14.838-6.643-14.838-14.838c0-2.308,1.498-6.251,1.483-8.414C48.571,78.283,38,59.114,29.465,52.624  c-5.536-4.209-11.978-7.34-11.978-14.556c0-8.195,6.643-14.838,14.838-14.838s14.838,6.643,14.838,14.838  c0,2.308-1.498,5.255-1.483,7.419C45.743,54.61,54.581,82.581,62,82.581c7.419,0,16.257-27.971,16.321-37.094  c0.015-2.163-1.483-5.11-1.483-7.419c0-8.195,6.643-14.838,14.838-14.838c8.195,0,14.838,6.643,14.838,14.838  C106.513,45.284,100.071,48.416,94.535,52.624z"/>
</svg>